<svg width="49" height="49" viewBox="0 0 49 49" fill="none" xmlns="http://www.w3.org/2000/svg">
  <path d="M0 0H49V49H0V0Z" fill="white"/>
  <mask id="mask0" mask-type="alpha" maskUnits="userSpaceOnUse" x="0" y="0" width="49" height="49">
    <path d="M0 0H49V49H0V0Z" fill="#F7DF1E"/>
  </mask>
  <g mask="url(#mask0)">
    <path d="M9.07581 41.8422C8.55368 41.8422 8.0795 41.7852 7.65327 41.6711C7.22704 41.557 6.84344 41.4015 6.50246 41.2044C6.16147 41.0074 5.86311 40.7741 5.60738 40.5044C5.36229 40.2244 5.15984 39.9289 5 39.6178L6.82213 38.5911C7.06721 38.9748 7.35491 39.2911 7.68524 39.54C8.02622 39.7889 8.47376 39.9133 9.02786 39.9133C9.49671 39.9133 9.86434 39.8148 10.1307 39.6178C10.4078 39.4104 10.5463 39.1511 10.5463 38.84C10.5463 38.4667 10.4024 38.1867 10.1147 38C9.82704 37.8133 9.42745 37.6111 8.91598 37.3933L8.35655 37.16C7.95163 36.9941 7.58401 36.8126 7.25368 36.6156C6.92336 36.4185 6.64098 36.1904 6.40655 35.9311C6.17213 35.6719 5.99098 35.3763 5.86311 35.0444C5.73524 34.7126 5.67131 34.3237 5.67131 33.8778C5.67131 33.4733 5.7459 33.0948 5.89508 32.7422C6.05492 32.3896 6.27336 32.0837 6.55041 31.8244C6.83811 31.5652 7.18442 31.363 7.58934 31.2178C7.99426 31.0726 8.44712 31 8.94794 31C9.66188 31 10.2746 31.1348 10.7861 31.4044C11.3082 31.6637 11.7557 32.1096 12.1287 32.7422L10.3865 33.8311C10.1947 33.4993 9.98688 33.2607 9.76311 33.1156C9.53934 32.9704 9.26761 32.8978 8.94794 32.8978C8.61762 32.8978 8.35655 32.9859 8.16475 33.1622C7.97294 33.3385 7.87704 33.5615 7.87704 33.8311C7.87704 34.163 7.9836 34.417 8.19671 34.5933C8.42048 34.7593 8.77212 34.9459 9.25163 35.1533L9.81106 35.3867C10.2906 35.5837 10.7115 35.7911 11.0738 36.0089C11.4467 36.2163 11.7557 36.4548 12.0008 36.7244C12.2565 36.9837 12.4483 37.2844 12.5762 37.6267C12.7147 37.9585 12.784 38.3526 12.784 38.8089C12.784 39.2963 12.6881 39.7319 12.4963 40.1156C12.3151 40.4889 12.0594 40.8052 11.7291 41.0644C11.3988 41.3237 11.0045 41.5207 10.5463 41.6556C10.0988 41.78 9.6086 41.8422 9.07581 41.8422Z" fill="black"/>
    <path d="M17.4113 41.8422C16.8785 41.8422 16.383 41.7593 15.9249 41.5933C15.4773 41.417 15.0831 41.1785 14.7421 40.8778C14.4117 40.5667 14.1507 40.1985 13.9589 39.7733C13.7777 39.3481 13.6872 38.8815 13.6872 38.3733C13.6872 37.8756 13.7777 37.4141 13.9589 36.9889C14.1507 36.5637 14.4117 36.2007 14.7421 35.9C15.0831 35.5993 15.4773 35.3659 15.9249 35.2C16.383 35.0237 16.8785 34.9356 17.4113 34.9356C18.0933 34.9356 18.6527 35.0496 19.0896 35.2778C19.5371 35.5059 19.9314 35.8326 20.2724 36.2578L18.738 37.4711C18.5994 37.2637 18.4076 37.0978 18.1626 36.9733C17.9281 36.8385 17.6777 36.7711 17.4113 36.7711C16.9212 36.7711 16.5429 36.9215 16.2765 37.2222C16.0208 37.523 15.8929 37.9067 15.8929 38.3733C15.8929 38.8607 16.0208 39.26 16.2765 39.5711C16.5429 39.8719 16.9212 40.0222 17.4113 40.0222C17.7097 40.0222 17.9708 39.9652 18.1945 39.8511C18.4289 39.7267 18.6261 39.5763 18.7859 39.4L20.2404 40.6444C19.9207 41.0074 19.5371 41.2978 19.0896 41.5156C18.6421 41.7333 18.0826 41.8422 17.4113 41.8422Z" fill="black"/>
    <path d="M24.4436 41.8422C23.9108 41.8422 23.4153 41.7593 22.9571 41.5933C22.5096 41.417 22.1153 41.1785 21.7743 40.8778C21.4334 40.577 21.167 40.2141 20.9752 39.7889C20.7834 39.3637 20.6875 38.9022 20.6875 38.4044C20.6875 37.8963 20.7834 37.4296 20.9752 37.0044C21.167 36.5793 21.4334 36.2163 21.7743 35.9156C22.1153 35.6044 22.5096 35.3659 22.9571 35.2C23.4153 35.0237 23.9108 34.9356 24.4436 34.9356C24.9657 34.9356 25.4559 35.0237 25.9141 35.2C26.3723 35.3659 26.7665 35.6044 27.0969 35.9156C27.4379 36.2163 27.7043 36.5793 27.8961 37.0044C28.0879 37.4296 28.1838 37.8963 28.1838 38.4044C28.1838 38.9022 28.0879 39.3637 27.8961 39.7889C27.7043 40.2141 27.4379 40.577 27.0969 40.8778C26.7665 41.1785 26.3723 41.417 25.9141 41.5933C25.4559 41.7593 24.9657 41.8422 24.4436 41.8422ZM24.4436 40.0689C24.9231 40.0689 25.2961 39.9185 25.5624 39.6178C25.8395 39.3067 25.978 38.9022 25.978 38.4044C25.978 37.9067 25.8395 37.5074 25.5624 37.2067C25.2961 36.8956 24.9231 36.74 24.4436 36.74C23.9641 36.74 23.5858 36.8956 23.3088 37.2067C23.0317 37.5074 22.8932 37.9067 22.8932 38.4044C22.8932 38.9022 23.0317 39.3067 23.3088 39.6178C23.5858 39.9185 23.9641 40.0689 24.4436 40.0689Z" fill="black"/>
    <path d="M29.0698 35.0756H31.2276L31.1796 36.1022C31.3927 35.7393 31.6751 35.4541 32.0267 35.2467C32.389 35.0393 32.8366 34.9356 33.3694 34.9356C33.7849 34.9356 34.1739 35.0185 34.5362 35.1844C34.9091 35.3504 35.2341 35.5889 35.5112 35.9C35.7882 36.2007 36.0066 36.5637 36.1665 36.9889C36.3263 37.4037 36.4062 37.8652 36.4062 38.3733C36.4062 38.8815 36.321 39.3481 36.1505 39.7733C35.9907 40.1985 35.7669 40.5667 35.4792 40.8778C35.2021 41.1785 34.8771 41.417 34.5042 41.5933C34.1312 41.7593 33.737 41.8422 33.3214 41.8422C32.7993 41.8422 32.3624 41.7489 32.0108 41.5622C31.6698 41.3652 31.4087 41.1163 31.2276 40.8156V45H29.0698V35.0756ZM32.698 40.0067C33.1562 40.0067 33.5185 39.8667 33.7849 39.5867C34.0513 39.3067 34.1845 38.9022 34.1845 38.3733C34.1845 37.8756 34.0513 37.4867 33.7849 37.2067C33.5185 36.9267 33.1562 36.7867 32.698 36.7867C32.2292 36.7867 31.8562 36.9267 31.5792 37.2067C31.3021 37.4867 31.1636 37.8756 31.1636 38.3733C31.1636 38.9022 31.3021 39.3067 31.5792 39.5867C31.8562 39.8667 32.2292 40.0067 32.698 40.0067Z" fill="black"/>
    <path d="M39.4187 39.0267C39.5253 39.3689 39.7224 39.6333 40.0101 39.82C40.2978 40.0067 40.6867 40.1 41.1769 40.1C41.5498 40.1 41.8855 40.043 42.1839 39.9289C42.4822 39.8148 42.7166 39.6956 42.8871 39.5711L44.1179 40.8622C43.7875 41.1526 43.3933 41.3911 42.9351 41.5778C42.4875 41.7541 41.9121 41.8422 41.2089 41.8422C40.6015 41.8422 40.0527 41.7593 39.5626 41.5933C39.0724 41.417 38.6515 41.1785 38.2999 40.8778C37.9482 40.5667 37.6765 40.1985 37.4847 39.7733C37.3035 39.3481 37.213 38.8815 37.213 38.3733C37.213 37.8756 37.3089 37.4141 37.5007 36.9889C37.6925 36.5637 37.9589 36.2007 38.2999 35.9C38.6408 35.5993 39.0351 35.3659 39.4826 35.2C39.9408 35.0237 40.4363 34.9356 40.9691 34.9356C41.5765 34.9356 42.1146 35.0393 42.5835 35.2467C43.0523 35.4541 43.4412 35.7444 43.7503 36.1178C44.0593 36.4807 44.283 36.9111 44.4216 37.4089C44.5707 37.9067 44.624 38.4459 44.5814 39.0267H39.4187ZM42.4076 37.8133C42.3544 37.4504 42.2105 37.1652 41.9761 36.9578C41.7416 36.7504 41.4113 36.6467 40.9851 36.6467C40.5589 36.6467 40.2072 36.7452 39.9302 36.9422C39.6531 37.1289 39.472 37.4193 39.3867 37.8133H42.4076Z" fill="black"/>
    <path d="M48.2029 41.8422C47.4143 41.8422 46.775 41.7178 46.2848 41.4689C45.7947 41.22 45.4004 40.9244 45.1021 40.5822L46.3648 39.4933C46.5992 39.7111 46.8602 39.8822 47.1479 40.0067C47.4357 40.1311 47.7393 40.1933 48.059 40.1933C48.4107 40.1933 48.6504 40.1622 48.7783 40.1C48.9168 40.0378 48.9861 39.9341 48.9861 39.7889C48.9861 39.6956 48.9541 39.623 48.8902 39.5711C48.8369 39.5193 48.7463 39.4778 48.6184 39.4467C48.5012 39.4052 48.3467 39.3637 48.1549 39.3222C47.9631 39.2807 47.7287 39.2237 47.4516 39.1511C47.2172 39.0889 46.9828 39.0111 46.7484 38.9178C46.5139 38.8244 46.3008 38.6948 46.109 38.5289C45.9279 38.363 45.7787 38.1607 45.6615 37.9222C45.5443 37.6733 45.4857 37.3778 45.4857 37.0356C45.4857 36.6622 45.5549 36.3459 45.6934 36.0867C45.832 35.817 46.0185 35.5993 46.2529 35.4333C46.498 35.257 46.7803 35.1326 47.1 35.06C47.4197 34.977 47.7607 34.9356 48.123 34.9356C48.6877 34.9356 49.1725 35.0185 49.5775 35.1844C49.9824 35.3504 50.3234 35.5733 50.6004 35.8533L49.4496 37.0511C49.2898 36.9163 49.0926 36.8022 48.8582 36.7089C48.6344 36.6052 48.3947 36.5533 48.1389 36.5533C47.6488 36.5533 47.4037 36.683 47.4037 36.9422C47.4037 37.1289 47.5102 37.2533 47.7234 37.3156C47.9471 37.3778 48.2934 37.4607 48.7623 37.5644C49.0074 37.6163 49.2631 37.6889 49.5295 37.7822C49.7959 37.8756 50.0357 38 50.2488 38.1556C50.4725 38.3111 50.6537 38.5081 50.7922 38.7467C50.9307 38.9852 51 39.2807 51 39.6333C51 39.9341 50.952 40.2193 50.8561 40.4889C50.7709 40.7585 50.6164 40.997 50.3926 41.2044C50.1795 41.4015 49.8918 41.557 49.5295 41.6711C49.1779 41.7852 48.7357 41.8422 48.2029 41.8422Z" fill="black"/>
  </g>
  <mask id="mask1" mask-type="alpha" maskUnits="userSpaceOnUse" x="0" y="22" width="27" height="27">
    <path fill-rule="evenodd" clip-rule="evenodd" d="M26 23H1V48H26V23ZM0 22V49H27V22H0Z" fill="black"/>
  </mask>
  <g mask="url(#mask1)">
    <path d="M-4 -1H53V33H-4V-1Z" fill="black"/>
    <path d="M-4 50H53V44H-4V50Z" fill="black"/>
  </g>
  <mask id="mask2" mask-type="alpha" maskUnits="userSpaceOnUse" x="0" y="4" width="45" height="45">
    <path fill-rule="evenodd" clip-rule="evenodd" d="M44 5H1V48H44V5ZM0 4V49H45V4H0Z" fill="black"/>
  </mask>
  <g mask="url(#mask2)">
    <path d="M-4 -1H53V33H-4V-1Z" fill="black"/>
    <path d="M-4 50H53V44H-4V50Z" fill="black"/>
  </g>
  <path fill-rule="evenodd" clip-rule="evenodd" d="M48 1H1V48H48V1ZM0 0V49H49V0H0Z" fill="black"/>
</svg>
